<?xml version="1.0" encoding="UTF-8"?>
<svg version="1.1" xmlns="http://www.w3.org/2000/svg" width="634" height="425">
<path d="M0 0 C12.00638402 8.65307612 21.21192777 20.32740914 30.43359375 31.75390625 C35.85284455 38.44653292 41.37043221 45.03870311 46.99145508 51.56176758 C50.76669677 55.95151372 54.44073341 60.4148754 58.08984375 64.91015625 C61.33323138 68.84546658 64.66506172 72.70209927 67.99438477 76.56469727 C71.00604384 80.06625927 73.96418325 83.60177182 76.87109375 87.19140625 C82.02810461 93.53992864 87.41303735 99.68483841 92.78271484 105.85302734 C99.6779735 113.79246596 106.49068738 121.80323812 113.27197266 129.84008789 C115.73007851 132.75058131 118.19960214 135.65061481 120.68359375 138.5390625 C121.22564453 139.16941406 121.76769531 139.79976562 122.32617188 140.44921875 C123.37060706 141.66243872 124.41612017 142.87473184 125.46289062 144.0859375 C127.89071261 146.90576874 130.25146854 149.73874 132.43359375 152.75390625 C136.6756522 152.24842732 138.70695884 149.84736687 141.68359375 146.94140625 C165.70289794 124.16907766 196.66545011 107.08985152 226.30859375 92.87890625 C226.9953418 92.54632813 227.68208984 92.21375 228.38964844 91.87109375 C240.82865856 86.0365092 253.48284626 81.91599413 266.88012695 78.99316406 C269.13330679 78.50123985 271.38211866 77.99226625 273.63085938 77.48046875 C287.16628021 74.4300805 300.26223295 72.39642526 314.17163086 72.43823242 C316.3655755 72.44139829 318.5581731 72.41780525 320.75195312 72.39257812 C340.91693436 72.30178692 359.43934135 77.44522491 374.49609375 91.31640625 C389.050459 106.60732844 394.85942574 126.09705774 394.74609375 146.87890625 C394.73763428 148.52294434 394.73763428 148.52294434 394.72900391 150.20019531 C394.59341723 159.34759766 393.6340449 167.88578668 391.43359375 176.75390625 C391.24555176 177.53588379 391.05750977 178.31786133 390.86376953 179.12353516 C386.43013198 197.13673086 378.97844811 213.86945424 371.43359375 230.75390625 C371.12695801 231.45 370.82032227 232.14609375 370.50439453 232.86328125 C361.4876018 253.21560467 349.61883935 271.86379328 336.43359375 289.75390625 C335.26570312 291.3471875 335.26570312 291.3471875 334.07421875 292.97265625 C324.95724522 305.25793973 315.41025129 317.15898772 305.43359375 328.75390625 C304.83160156 329.45773437 304.22960937 330.1615625 303.609375 330.88671875 C301.90373187 332.8608045 300.17318896 334.80965278 298.43359375 336.75390625 C298.00997559 337.23327637 297.58635742 337.71264648 297.14990234 338.20654297 C290.42401148 345.79537832 283.57004634 352.63654382 275.43359375 358.75390625 C274.61246094 359.37910156 273.79132813 360.00429688 272.9453125 360.6484375 C256.81766769 372.45479949 240.83631086 376.73622514 221.13671875 374.35546875 C197.11760716 369.35689688 178.42430506 348.39931157 163.09912109 330.66674805 C160.60644784 327.80393729 158.02148807 325.03041635 155.43359375 322.25390625 C151.6045783 318.12620271 147.82496878 313.96899905 144.140625 309.7109375 C142.09725944 307.36831475 140.01678516 305.06117203 137.93359375 302.75390625 C133.112381 297.40600639 128.35465348 292.0108841 123.68359375 286.53125 C118.94280052 280.97268146 114.19273158 275.44452651 109.24609375 270.06640625 C106.05622531 266.59254316 103.01310481 263.054806 100.05859375 259.37890625 C94.82422868 252.88528639 89.14156462 246.82888709 83.43359375 240.75390625 C82.77875 241.41398682 82.12390625 242.07406738 81.44921875 242.75415039 C78.98369249 245.23687091 76.51581541 247.71720817 74.04638672 250.19604492 C72.98458514 251.26282922 71.92368817 252.33051478 70.86376953 253.39916992 C65.40640855 258.90033408 59.93957085 264.32805546 54.04296875 269.36499023 C52.07050953 271.06725366 50.24279743 272.88008816 48.43359375 274.75390625 C45.30513411 277.92480623 42.06504023 280.87960585 38.6875 283.78125 C36.47414014 285.71841937 34.31190109 287.70460353 32.15600586 289.70532227 C27.0496252 294.44133397 21.83112611 298.94842044 16.40234375 303.31640625 C12.9107602 306.18318012 9.51863742 309.1519902 6.12109375 312.12890625 C-0.27799303 317.70910298 -6.82329374 323.03662433 -13.55810547 328.20507812 C-15.77056035 329.91135259 -17.96690332 331.63736143 -20.1640625 333.36328125 C-57.33770111 362.35697276 -100.64800805 393.19991716 -149.56640625 393.06640625 C-150.7471875 393.08251953 -151.92796875 393.09863281 -153.14453125 393.11523438 C-169.02022486 393.1239765 -184.81050893 388.40343868 -196.4765625 377.171875 C-216.08269157 354.48740043 -220.4401773 323.85380942 -218.35986328 294.87695312 C-216.96835991 279.14691503 -213.65573583 263.9821581 -209.56640625 248.75390625 C-209.34114258 247.89909668 -209.11587891 247.04428711 -208.88378906 246.16357422 C-197.60839024 203.96931272 -176.60742049 163.25225515 -154.56640625 125.75390625 C-154.0470752 124.86558105 -153.52774414 123.97725586 -152.99267578 123.06201172 C-145.51282956 110.33030936 -137.50149631 97.97654806 -129.31640625 85.69140625 C-128.85654327 85.00056946 -128.3966803 84.30973267 -127.92288208 83.59796143 C-119.76410744 71.36189561 -111.34672866 59.32020039 -102.50390625 47.56640625 C-101.99988281 46.89625488 -101.49585937 46.22610352 -100.9765625 45.53564453 C-96.65286278 39.81689321 -92.18517514 34.23772885 -87.56640625 28.75390625 C-87.11297852 28.21024414 -86.65955078 27.66658203 -86.19238281 27.10644531 C-63.90614834 0.41358064 -34.26938961 -21.87757833 0 0 Z M159.43359375 185.75390625 C160.46806641 186.86185547 160.46806641 186.86185547 161.5234375 187.9921875 C166.90626425 193.79056115 172.08942951 199.67546263 177.0546875 205.83984375 C179.79264528 209.19372963 182.60579263 212.4758042 185.43359375 215.75390625 C189.00688771 219.90069876 192.54086162 224.06999396 195.99609375 228.31640625 C216.3177082 254.61266106 216.3177082 254.61266106 245.74609375 267.75390625 C258.28142466 268.46111815 269.38035335 262.0751702 278.55078125 254.08984375 C281.35238829 251.57829141 284.07026373 248.98708703 286.76757812 246.36425781 C288.41394316 244.77290029 290.08510682 243.21173076 291.76171875 241.65234375 C300.02699678 233.83858689 306.3303627 225.31891006 312.43359375 215.75390625 C313.29671045 214.42827827 314.15999028 213.10275648 315.0234375 211.77734375 C330.31953446 188.04979683 344.39362491 160.43735973 344.74609375 131.62890625 C344.77509766 130.83097656 344.80410156 130.03304687 344.83398438 129.2109375 C344.90425722 124.4540382 344.90425722 124.4540382 342.6796875 120.35546875 C287.73128875 81.17487138 196.76685424 147.03326107 159.43359375 185.75390625 Z M-85.28222656 136.84912109 C-107.37488057 164.92338301 -124.81093979 197.08777568 -141.9909668 228.31494141 C-143.88009111 231.7457823 -145.78914442 235.15491426 -147.80078125 238.515625 C-161.07178283 260.87667544 -171.54723393 286.77313394 -174.56640625 312.75390625 C-174.69329834 313.76807617 -174.69329834 313.76807617 -174.82275391 314.80273438 C-175.11831158 318.85774708 -174.66545605 320.61469193 -172.29296875 323.94921875 C-171.28254601 324.95000576 -170.24720149 325.92610765 -169.19140625 326.87890625 C-168.37373779 327.65137695 -168.37373779 327.65137695 -167.53955078 328.43945312 C-155.55588728 339.45618543 -140.6622045 345.27295262 -124.37890625 344.69140625 C-101.62923763 342.6441661 -83.295265 330.2170003 -65.56640625 316.75390625 C-64.83357422 316.2012207 -64.10074219 315.64853516 -63.34570312 315.07910156 C-58.39113048 311.34009177 -53.46880681 307.56101301 -48.56640625 303.75390625 C-47.61459473 303.01479004 -47.61459473 303.01479004 -46.64355469 302.26074219 C-36.04350656 294.01256241 -25.64060014 285.54512798 -15.40869141 276.84423828 C-11.93399265 273.89410028 -8.4218283 270.99722396 -4.87890625 268.12890625 C-0.4783905 264.54990502 3.73191896 260.80598325 7.921875 256.984375 C10.42818119 254.75871274 13.00283768 252.65869064 15.62109375 250.56640625 C21.69110365 245.66038972 27.32336851 240.32387112 33 234.97265625 C36.04312375 232.10700035 39.15520153 229.33937094 42.3203125 226.609375 C45.37481392 223.92751146 48.3749762 221.18818465 51.37109375 218.44140625 C51.95197754 217.91272949 52.53286133 217.38405273 53.13134766 216.83935547 C56.18618316 214.1188821 56.18618316 214.1188821 58.43359375 210.75390625 C53.63633159 204.70887136 48.70753227 198.88330621 43.43359375 193.25390625 C38.99519752 188.51529835 34.84216955 183.63271087 30.77734375 178.56640625 C27.61424035 174.77068217 24.24547785 171.18788268 20.8684082 167.58325195 C17.81150153 164.30152285 14.91647975 160.95274799 12.12109375 157.44140625 C7.66673752 151.88771164 2.82910631 146.74035162 -2.07543945 141.58666992 C-5.80550838 137.66285686 -9.42476635 133.66764678 -12.9765625 129.58178711 C-21.4899992 119.79368812 -30.69993414 111.61938626 -44.12890625 110.44140625 C-61.08201979 110.7553528 -75.20192114 124.53990351 -85.28222656 136.84912109 Z " fill="#F1F1F1" transform="translate(228.56640625,20.24609375)"/>
<path d="M0 0 C0.33 0.66 0.66 1.32 1 2 C-0.26171195 5.30248426 -2.03149525 8.37985864 -3.6875 11.5 C-4.13544922 12.38042969 -4.58339844 13.26085937 -5.04492188 14.16796875 C-5.48771484 15.00972656 -5.93050781 15.85148437 -6.38671875 16.71875 C-6.99326294 17.87793945 -6.99326294 17.87793945 -7.61206055 19.06054688 C-9.18842351 21.26329575 -10.51137555 22.0075936 -13 23 C-11.49450797 18.8189444 -9.42101826 15.25957473 -7.0625 11.5 C-6.37285156 10.3965625 -5.68320312 9.293125 -4.97265625 8.15625 C-4.32167969 7.1146875 -3.67070313 6.073125 -3 5 C-1.99572727 3.33590443 -0.99403636 1.67023037 0 0 Z " fill="#0C0C0C" transform="translate(598,252)"/>
</svg>
