<?xml version="1.0" encoding="UTF-8"?>
<svg version="1.1" xmlns="http://www.w3.org/2000/svg" width="634" height="529">
<path d="M0 0 C12.00638402 8.65307612 21.21192777 20.32740914 30.43359375 31.75390625 C35.85284455 38.44653292 41.37043221 45.03870311 46.99145508 51.56176758 C50.76669677 55.95151372 54.44073341 60.4148754 58.08984375 64.91015625 C61.33323138 68.84546658 64.66506172 72.70209927 67.99438477 76.56469727 C71.00604384 80.06625927 73.96418325 83.60177182 76.87109375 87.19140625 C82.02810461 93.53992864 87.41303735 99.68483841 92.78271484 105.85302734 C99.6779735 113.79246596 106.49068738 121.80323812 113.27197266 129.84008789 C115.73007851 132.75058131 118.19960214 135.65061481 120.68359375 138.5390625 C121.22564453 139.16941406 121.76769531 139.79976562 122.32617188 140.44921875 C123.37060706 141.66243872 124.41612017 142.87473184 125.46289062 144.0859375 C127.89071261 146.90576874 130.25146854 149.73874 132.43359375 152.75390625 C136.6756522 152.24842732 138.70695884 149.84736687 141.68359375 146.94140625 C165.70289794 124.16907766 196.66545011 107.08985152 226.30859375 92.87890625 C226.9953418 92.54632813 227.68208984 92.21375 228.38964844 91.87109375 C240.82865856 86.0365092 253.48284626 81.91599413 266.88012695 78.99316406 C269.13330679 78.50123985 271.38211866 77.99226625 273.63085938 77.48046875 C287.16628021 74.4300805 300.26223295 72.39642526 314.17163086 72.43823242 C316.3655755 72.44139829 318.5581731 72.41780525 320.75195312 72.39257812 C340.91693436 72.30178692 359.43934135 77.44522491 374.49609375 91.31640625 C389.050459 106.60732844 394.85942574 126.09705774 394.74609375 146.87890625 C394.73763428 148.52294434 394.73763428 148.52294434 394.72900391 150.20019531 C394.59341723 159.34759766 393.6340449 167.88578668 391.43359375 176.75390625 C391.24555176 177.53588379 391.05750977 178.31786133 390.86376953 179.12353516 C386.43013198 197.13673086 378.97844811 213.86945424 371.43359375 230.75390625 C371.12695801 231.45 370.82032227 232.14609375 370.50439453 232.86328125 C361.4876018 253.21560467 349.61883935 271.86379328 336.43359375 289.75390625 C335.26570312 291.3471875 335.26570312 291.3471875 334.07421875 292.97265625 C324.95724522 305.25793973 315.41025129 317.15898772 305.43359375 328.75390625 C304.83160156 329.45773437 304.22960937 330.1615625 303.609375 330.88671875 C301.90373187 332.8608045 300.17318896 334.80965278 298.43359375 336.75390625 C298.00997559 337.23327637 297.58635742 337.71264648 297.14990234 338.20654297 C290.42401148 345.79537832 283.57004634 352.63654382 275.43359375 358.75390625 C274.61246094 359.37910156 273.79132813 360.00429688 272.9453125 360.6484375 C256.81766769 372.45479949 240.83631086 376.73622514 221.13671875 374.35546875 C197.11760716 369.35689688 178.42430506 348.39931157 163.09912109 330.66674805 C160.60644784 327.80393729 158.02148807 325.03041635 155.43359375 322.25390625 C151.6045783 318.12620271 147.82496878 313.96899905 144.140625 309.7109375 C142.09725944 307.36831475 140.01678516 305.06117203 137.93359375 302.75390625 C133.112381 297.40600639 128.35465348 292.0108841 123.68359375 286.53125 C118.94280052 280.97268146 114.19273158 275.44452651 109.24609375 270.06640625 C106.05622531 266.59254316 103.01310481 263.054806 100.05859375 259.37890625 C94.82422868 252.88528639 89.14156462 246.82888709 83.43359375 240.75390625 C82.77875 241.41398682 82.12390625 242.07406738 81.44921875 242.75415039 C78.98369249 245.23687091 76.51581541 247.71720817 74.04638672 250.19604492 C72.98458514 251.26282922 71.92368817 252.33051478 70.86376953 253.39916992 C65.40640855 258.90033408 59.93957085 264.32805546 54.04296875 269.36499023 C52.07050953 271.06725366 50.24279743 272.88008816 48.43359375 274.75390625 C45.30513411 277.92480623 42.06504023 280.87960585 38.6875 283.78125 C36.47414014 285.71841937 34.31190109 287.70460353 32.15600586 289.70532227 C27.0496252 294.44133397 21.83112611 298.94842044 16.40234375 303.31640625 C12.9107602 306.18318012 9.51863742 309.1519902 6.12109375 312.12890625 C-0.27799303 317.70910298 -6.82329374 323.03662433 -13.55810547 328.20507812 C-15.77056035 329.91135259 -17.96690332 331.63736143 -20.1640625 333.36328125 C-57.33770111 362.35697276 -100.64800805 393.19991716 -149.56640625 393.06640625 C-150.7471875 393.08251953 -151.92796875 393.09863281 -153.14453125 393.11523438 C-169.02022486 393.1239765 -184.81050893 388.40343868 -196.4765625 377.171875 C-216.08269157 354.48740043 -220.4401773 323.85380942 -218.35986328 294.87695312 C-216.96835991 279.14691503 -213.65573583 263.9821581 -209.56640625 248.75390625 C-209.34114258 247.89909668 -209.11587891 247.04428711 -208.88378906 246.16357422 C-197.60839024 203.96931272 -176.60742049 163.25225515 -154.56640625 125.75390625 C-154.0470752 124.86558105 -153.52774414 123.97725586 -152.99267578 123.06201172 C-145.51282956 110.33030936 -137.50149631 97.97654806 -129.31640625 85.69140625 C-128.85654327 85.00056946 -128.3966803 84.30973267 -127.92288208 83.59796143 C-119.76410744 71.36189561 -111.34672866 59.32020039 -102.50390625 47.56640625 C-101.99988281 46.89625488 -101.49585937 46.22610352 -100.9765625 45.53564453 C-96.65286278 39.81689321 -92.18517514 34.23772885 -87.56640625 28.75390625 C-87.11297852 28.21024414 -86.65955078 27.66658203 -86.19238281 27.10644531 C-63.90614834 0.41358064 -34.26938961 -21.87757833 0 0 Z M159.43359375 185.75390625 C160.46806641 186.86185547 160.46806641 186.86185547 161.5234375 187.9921875 C166.90626425 193.79056115 172.08942951 199.67546263 177.0546875 205.83984375 C179.79264528 209.19372963 182.60579263 212.4758042 185.43359375 215.75390625 C189.00688771 219.90069876 192.54086162 224.06999396 195.99609375 228.31640625 C216.3177082 254.61266106 216.3177082 254.61266106 245.74609375 267.75390625 C258.28142466 268.46111815 269.38035335 262.0751702 278.55078125 254.08984375 C281.35238829 251.57829141 284.07026373 248.98708703 286.76757812 246.36425781 C288.41394316 244.77290029 290.08510682 243.21173076 291.76171875 241.65234375 C300.02699678 233.83858689 306.3303627 225.31891006 312.43359375 215.75390625 C313.29671045 214.42827827 314.15999028 213.10275648 315.0234375 211.77734375 C330.31953446 188.04979683 344.39362491 160.43735973 344.74609375 131.62890625 C344.77509766 130.83097656 344.80410156 130.03304687 344.83398438 129.2109375 C344.90425722 124.4540382 344.90425722 124.4540382 342.6796875 120.35546875 C287.73128875 81.17487138 196.76685424 147.03326107 159.43359375 185.75390625 Z M-85.28222656 136.84912109 C-107.37488057 164.92338301 -124.81093979 197.08777568 -141.9909668 228.31494141 C-143.88009111 231.7457823 -145.78914442 235.15491426 -147.80078125 238.515625 C-161.07178283 260.87667544 -171.54723393 286.77313394 -174.56640625 312.75390625 C-174.69329834 313.76807617 -174.69329834 313.76807617 -174.82275391 314.80273438 C-175.11831158 318.85774708 -174.66545605 320.61469193 -172.29296875 323.94921875 C-171.28254601 324.95000576 -170.24720149 325.92610765 -169.19140625 326.87890625 C-168.37373779 327.65137695 -168.37373779 327.65137695 -167.53955078 328.43945312 C-155.55588728 339.45618543 -140.6622045 345.27295262 -124.37890625 344.69140625 C-101.62923763 342.6441661 -83.295265 330.2170003 -65.56640625 316.75390625 C-64.83357422 316.2012207 -64.10074219 315.64853516 -63.34570312 315.07910156 C-58.39113048 311.34009177 -53.46880681 307.56101301 -48.56640625 303.75390625 C-47.61459473 303.01479004 -47.61459473 303.01479004 -46.64355469 302.26074219 C-36.04350656 294.01256241 -25.64060014 285.54512798 -15.40869141 276.84423828 C-11.93399265 273.89410028 -8.4218283 270.99722396 -4.87890625 268.12890625 C-0.4783905 264.54990502 3.73191896 260.80598325 7.921875 256.984375 C10.42818119 254.75871274 13.00283768 252.65869064 15.62109375 250.56640625 C21.69110365 245.66038972 27.32336851 240.32387112 33 234.97265625 C36.04312375 232.10700035 39.15520153 229.33937094 42.3203125 226.609375 C45.37481392 223.92751146 48.3749762 221.18818465 51.37109375 218.44140625 C51.95197754 217.91272949 52.53286133 217.38405273 53.13134766 216.83935547 C56.18618316 214.1188821 56.18618316 214.1188821 58.43359375 210.75390625 C53.63633159 204.70887136 48.70753227 198.88330621 43.43359375 193.25390625 C38.99519752 188.51529835 34.84216955 183.63271087 30.77734375 178.56640625 C27.61424035 174.77068217 24.24547785 171.18788268 20.8684082 167.58325195 C17.81150153 164.30152285 14.91647975 160.95274799 12.12109375 157.44140625 C7.66673752 151.88771164 2.82910631 146.74035162 -2.07543945 141.58666992 C-5.80550838 137.66285686 -9.42476635 133.66764678 -12.9765625 129.58178711 C-21.4899992 119.79368812 -30.69993414 111.61938626 -44.12890625 110.44140625 C-61.08201979 110.7553528 -75.20192114 124.53990351 -85.28222656 136.84912109 Z " fill="#F1F1F1" transform="translate(228.56640625,20.24609375)"/>
<path d="M0 0 C3.3 0 6.6 0 10 0 C12.85414035 6.04406193 15.46048226 12.0963742 17.75 18.375 C20.49523549 25.89479751 23.61257243 33.2298214 26.84082031 40.55419922 C29.20508846 45.96285318 31.21152587 51.3734036 33 57 C29.37 57 25.74 57 22 57 C17 47.25 17 47.25 17 45 C9.08 45.33 1.16 45.66 -7 46 C-8.32 49.63 -9.64 53.26 -11 57 C-14.63 57 -18.26 57 -22 57 C-20.8379923 50.14415455 -18.52396131 44.53865177 -15.51953125 38.28125 C-13.72125158 34.39807538 -12.27810468 30.45283557 -10.86328125 26.41796875 C-9.71918134 23.2134536 -8.36058858 20.1180155 -7 17 C-6.32866874 15.33520675 -5.6623388 13.6683913 -5 12 C-3.39775693 7.96974244 -1.72925413 3.9772845 0 0 Z M5 15 C-0.50230517 24.56943358 -0.50230517 24.56943358 -3 35 C2.28 35 7.56 35 13 35 C10.79757472 28.28260289 8.44267356 21.63365662 6 15 C5.67 15 5.34 15 5 15 Z " fill="#FFFFFF" transform="translate(324,428)"/>
<path d="M0 0 C1.051875 0.66 2.10375 1.32 3.1875 2 C3.8475 1.01 4.5075 0.02 5.1875 -1 C7.4975 -1 9.8075 -1 12.1875 -1 C12.1875 13.52 12.1875 28.04 12.1875 43 C9.8775 43 7.5675 43 5.1875 43 C4.5275 41.68 3.8675 40.36 3.1875 39 C2.37023437 39.64839844 1.55296875 40.29679687 0.7109375 40.96484375 C-3.16791431 43.53899086 -6.62793205 43.65476017 -11.1875 43.5625 C-12.31913574 43.5471521 -12.31913574 43.5471521 -13.47363281 43.53149414 C-20.45855108 43.26429907 -24.5352035 41.49804704 -29.3203125 36.390625 C-33.44776177 31.24900248 -35.22935704 25.57077544 -34.625 19 C-34.38900309 17.66006197 -34.11749134 16.32593693 -33.8125 15 C-33.66039062 14.32839844 -33.50828125 13.65679687 -33.3515625 12.96484375 C-31.587946 7.02122711 -27.88177161 3.43522069 -22.8125 0 C-15.87427012 -3.44044457 -6.9244529 -3.48695664 0 0 Z M-21.1875 12 C-24.24846163 15.76733739 -24.05486396 19.31429675 -23.8125 24 C-22.69424107 28.0070945 -20.97833243 30.31383915 -17.8125 33 C-13.42367234 34.46294255 -9.1691286 34.88488195 -4.8046875 33.24609375 C-1.22765261 31.33784292 0.76925685 29.76637213 2.1875 26 C2.82495271 21.02638642 2.95151807 16.52803614 0.6875 12 C-6.67673844 6.10860925 -13.89010167 5.85482246 -21.1875 12 Z " fill="#FFFFFF" transform="translate(457.8125,442)"/>
<path d="M0 0 C4.82406141 2.8760789 8.09805457 6.97456905 10.9375 11.75 C11.89662494 15.87423724 11.5625 20.20320508 11.5625 24.4375 C0.0125 24.4375 -11.5375 24.4375 -23.4375 24.4375 C-20.67107388 30.6453938 -20.67107388 30.6453938 -15.4375 33.4375 C-11.00419456 34.01785998 -7.53031312 33.93837268 -3.4375 32.0625 C-1.34033323 30.58663969 -1.34033323 30.58663969 -0.4375 28.4375 C3.1925 28.4375 6.8225 28.4375 10.5625 28.4375 C9.50374926 31.84062738 8.55347846 34.45103231 6.5625 37.4375 C5.9025 37.4375 5.2425 37.4375 4.5625 37.4375 C4.5625 38.0975 4.5625 38.7575 4.5625 39.4375 C-0.82239485 43.01324045 -4.5796531 44.0744674 -11 43.9375 C-11.72896484 43.95296875 -12.45792969 43.9684375 -13.20898438 43.984375 C-18.4017257 43.94698352 -21.27617406 42.74932449 -25.4375 39.4375 C-26.7678125 38.385625 -26.7678125 38.385625 -28.125 37.3125 C-32.03804207 32.44763689 -33.16742812 27.00318288 -33.8125 20.875 C-33.00949395 13.51411121 -30.88890306 7.64661848 -25.4375 2.4375 C-18.34408268 -2.9710201 -8.10393972 -3.59310955 0 0 Z M-20.4375 11.4375 C-21.9225 13.9125 -21.9225 13.9125 -23.4375 16.4375 C-15.1875 16.4375 -6.9375 16.4375 1.5625 16.4375 C-1.5214614 9.75287019 -1.5214614 9.75287019 -4.75 8 C-11.30946167 6.62708942 -15.21892255 7.04915078 -20.4375 11.4375 Z " fill="#FFFFFF" transform="translate(269.4375,441.5625)"/>
<path d="M0 0 C2.14177535 1.19817226 4.16499367 2.44103022 6.15234375 3.87890625 C6.15234375 4.53890625 6.15234375 5.19890625 6.15234375 5.87890625 C6.81234375 5.87890625 7.47234375 5.87890625 8.15234375 5.87890625 C12.5300349 13.12945721 12.15234375 15.46668689 12.15234375 24.87890625 C0.93234375 24.87890625 -10.28765625 24.87890625 -21.84765625 24.87890625 C-18.88055676 31.27009129 -18.88055676 31.27009129 -13.84765625 33.87890625 C-11.6238083 34.19227833 -11.6238083 34.19227833 -9.34765625 34.12890625 C-8.59484375 34.1340625 -7.84203125 34.13921875 -7.06640625 34.14453125 C-4.54937461 33.84319648 -2.98376433 33.23660207 -0.84765625 31.87890625 C-0.18765625 30.88890625 0.47234375 29.89890625 1.15234375 28.87890625 C3.75390625 28.5859375 3.75390625 28.5859375 6.77734375 28.69140625 C8.28167969 28.73201172 8.28167969 28.73201172 9.81640625 28.7734375 C10.58726562 28.80824219 11.358125 28.84304688 12.15234375 28.87890625 C10.73704417 35.32638212 6.7550522 39.38916265 1.4453125 43.05859375 C-2.03992961 44.30544357 -5.50429927 44.2475867 -9.16015625 44.25390625 C-9.89427734 44.27839844 -10.62839844 44.30289063 -11.38476562 44.328125 C-16.98655159 44.35794817 -20.19759376 42.98713824 -24.84765625 39.87890625 C-24.84765625 39.21890625 -24.84765625 38.55890625 -24.84765625 37.87890625 C-25.50765625 37.87890625 -26.16765625 37.87890625 -26.84765625 37.87890625 C-31.75253122 31.41498174 -32.67624238 25.51604946 -32.40234375 17.484375 C-31.37624705 10.81474642 -28.0434199 6.96755948 -23.28515625 2.44140625 C-16.36158534 -1.99678023 -7.74191354 -3.04791384 0 0 Z M-18.84765625 10.87890625 C-19.83765625 12.85890625 -20.82765625 14.83890625 -21.84765625 16.87890625 C-13.92765625 16.87890625 -6.00765625 16.87890625 2.15234375 16.87890625 C-0.00589905 11.48329925 -0.8453859 10.42723265 -5.84765625 7.87890625 C-11.02803546 7.23135885 -14.52246649 7.92991323 -18.84765625 10.87890625 Z " fill="#FFFFFF" transform="translate(610.84765625,441.12109375)"/>
<path d="M0 0 C5.3914438 3.62770011 7.30149781 7.66902692 8.5390625 13.9765625 C8.88256722 19.1721161 8.82427371 24.33824517 8.7265625 29.5390625 C8.71148361 30.94334497 8.69780089 32.34764316 8.68554688 33.75195312 C8.65040656 37.16056365 8.60120373 40.5683552 8.5390625 43.9765625 C5.2390625 43.9765625 1.9390625 43.9765625 -1.4609375 43.9765625 C-1.46504639 43.09395752 -1.46915527 42.21135254 -1.47338867 41.30200195 C-1.50043734 38.0118021 -1.54958701 34.72344852 -1.61352539 31.43383789 C-1.63665253 30.01305548 -1.65108876 28.59210292 -1.65649414 27.17114258 C-1.66582411 25.12213784 -1.70688916 23.075789 -1.75390625 21.02734375 C-1.7696167 19.79669189 -1.78532715 18.56604004 -1.80151367 17.2980957 C-2.63416821 13.10399536 -4.15154897 11.60270663 -7.4609375 8.9765625 C-11.50901285 8.20139913 -13.14371529 8.80298808 -16.7734375 10.7890625 C-19.68706096 12.76137092 -19.68706096 12.76137092 -20.4609375 15.9765625 C-20.61164547 18.11317508 -20.7095341 20.25368374 -20.77734375 22.39453125 C-20.81923828 23.64814453 -20.86113281 24.90175781 -20.90429688 26.19335938 C-20.94361328 27.50369141 -20.98292969 28.81402344 -21.0234375 30.1640625 C-21.06664742 31.49936228 -21.1102625 32.83464902 -21.15429688 34.16992188 C-21.26050252 37.43869547 -21.36254747 40.70754583 -21.4609375 43.9765625 C-25.0909375 43.9765625 -28.7209375 43.9765625 -32.4609375 43.9765625 C-32.4609375 29.4565625 -32.4609375 14.9365625 -32.4609375 -0.0234375 C-29.8209375 -0.0234375 -27.1809375 -0.0234375 -24.4609375 -0.0234375 C-23.8009375 1.2965625 -23.1409375 2.6165625 -22.4609375 3.9765625 C-21.6978125 3.3371875 -20.9346875 2.6978125 -20.1484375 2.0390625 C-14.60163495 -2.21778597 -6.43725597 -2.67708105 0 0 Z " fill="#FFFFFF" transform="translate(513.4609375,441.0234375)"/>
<path d="M0 0 C3.81516503 3.36632208 7.28753944 6.67233919 8.125 11.875 C8.20742194 14.33737767 8.23243299 16.80188768 8.22265625 19.265625 C8.2212413 19.97023865 8.21982635 20.67485229 8.21836853 21.40081787 C8.21278933 23.64225584 8.20024073 25.88359243 8.1875 28.125 C8.18248231 29.64843605 8.17791987 31.17187368 8.17382812 32.6953125 C8.16282674 36.42190772 8.14557646 40.14844396 8.125 43.875 C4.825 43.875 1.525 43.875 -1.875 43.875 C-1.88958252 43.02268799 -1.90416504 42.17037598 -1.91918945 41.29223633 C-1.98043285 38.11428825 -2.05462029 34.93697454 -2.13745117 31.75952148 C-2.17059806 30.38724042 -2.19866171 29.01482638 -2.22143555 27.64233398 C-2.25516766 25.66362234 -2.3090149 23.68528624 -2.36328125 21.70703125 C-2.38946533 20.51827393 -2.41564941 19.3295166 -2.44262695 18.10473633 C-2.91031893 14.611175 -3.78043572 12.68283965 -5.875 9.875 C-8.69501327 8.46499336 -10.74507255 8.62951549 -13.875 8.875 C-17.58656874 10.63973555 -17.58656874 10.63973555 -19.875 13.875 C-20.02995763 16.12474161 -20.12510928 18.37871536 -20.19140625 20.6328125 C-20.21218735 21.29586395 -20.23296844 21.95891541 -20.25437927 22.64205933 C-20.31979231 24.76126694 -20.37872105 26.880599 -20.4375 29 C-20.48069309 30.43621081 -20.52430764 31.87240902 -20.56835938 33.30859375 C-20.67546499 36.83059594 -20.77675575 40.35273825 -20.875 43.875 C-24.505 43.875 -28.135 43.875 -31.875 43.875 C-31.875 29.355 -31.875 14.835 -31.875 -0.125 C-29.235 -0.125 -26.595 -0.125 -23.875 -0.125 C-23.875 1.195 -23.875 2.515 -23.875 3.875 C-23.28074219 3.5140625 -22.68648437 3.153125 -22.07421875 2.78125 C-14.85747469 -1.25922879 -7.96976225 -3.11860262 0 0 Z " fill="#FFFFFF" transform="translate(166.875,441.125)"/>
<path d="M0 0 C4.65568206 2.24470385 8.81761598 5.65753765 10.59936523 10.69433594 C11.164077 13.94426764 11.11074225 17.0929531 11.09765625 20.390625 C11.0962413 21.09523865 11.09482635 21.79985229 11.09336853 22.52581787 C11.08778933 24.76725584 11.07524073 27.00859243 11.0625 29.25 C11.05748231 30.77343605 11.05291987 32.29687368 11.04882812 33.8203125 C11.03782674 37.54690772 11.02057646 41.27344396 11 45 C7.7 45 4.4 45 1 45 C0.98018066 44.11739502 0.96036133 43.23479004 0.93994141 42.32543945 C0.86162134 39.03578043 0.77492145 35.74656036 0.68261719 32.45727539 C0.64444851 31.0364627 0.60957487 29.61555737 0.578125 28.19458008 C0.53220935 26.14631145 0.47426195 24.09867392 0.4140625 22.05078125 C0.3826416 20.82012939 0.3512207 19.58947754 0.31884766 18.3215332 C0.01404965 15.14635945 -0.64442201 12.86573943 -2 10 C-9.54908343 9.47214137 -9.54908343 9.47214137 -16 13 C-17.91524795 16.84363727 -18.29277299 20.12918356 -18.4140625 24.39453125 C-18.47207031 26.19760742 -18.47207031 26.19760742 -18.53125 28.03710938 C-18.5621875 29.28298828 -18.593125 30.52886719 -18.625 31.8125 C-18.68300781 33.71032227 -18.68300781 33.71032227 -18.7421875 35.64648438 C-18.83630657 38.76417851 -18.92194361 41.88186914 -19 45 C-22.3 45 -25.6 45 -29 45 C-29 30.48 -29 15.96 -29 1 C-22 1 -22 1 -20.0625 2.5 C-19.711875 2.995 -19.36125 3.49 -19 4 C-17.63875 3.01 -17.63875 3.01 -16.25 2 C-11.11233399 -0.9298299 -5.74271973 -0.79072219 0 0 Z " fill="#FFFFFF" transform="translate(61,440)"/>
<path d="M0 0 C5.47888318 3.28732991 9.15648476 7.32351662 11.5 13.3125 C11.17 14.3025 10.84 15.2925 10.5 16.3125 C7.10053635 16.24113721 3.82489664 16.05136592 0.5 15.3125 C-1.625 12.875 -1.625 12.875 -3.5 10.3125 C-7.31646964 8.5204186 -10.55310776 8.14540137 -14.6875 8.875 C-18.27876795 10.71053695 -20.17473225 11.96137884 -22.5 15.3125 C-23.39383358 20.48118981 -23.37610373 24.77931847 -20.75 29.375 C-15.51702595 33.8811721 -11.46564868 33.57687658 -4.6875 33.125 C-2.23723305 32.4981587 -2.23723305 32.4981587 -1.25 29.8125 C-1.0025 28.9875 -0.755 28.1625 -0.5 27.3125 C0.5 26.3125 0.5 26.3125 3.00390625 26.21484375 C4.01324219 26.22644531 5.02257812 26.23804688 6.0625 26.25 C7.07441406 26.25902344 8.08632813 26.26804687 9.12890625 26.27734375 C9.91136719 26.28894531 10.69382812 26.30054688 11.5 26.3125 C10.28065514 30.34571763 8.94045073 33.85519479 6.5 37.3125 C5.84 37.3125 5.18 37.3125 4.5 37.3125 C4.5 37.9725 4.5 38.6325 4.5 39.3125 C-0.8673318 42.87188846 -4.60242367 43.94983616 -11 43.8125 C-11.72058594 43.82796875 -12.44117188 43.8434375 -13.18359375 43.859375 C-18.68306478 43.81959582 -21.93012741 42.34304708 -26.5 39.3125 C-26.5 38.6525 -26.5 37.9925 -26.5 37.3125 C-27.16 37.3125 -27.82 37.3125 -28.5 37.3125 C-33.89983543 31.14125951 -34.39675388 25.01404124 -33.984375 17.10546875 C-33.13619837 10.46369855 -30.34337097 6.81661002 -25.5 2.4375 C-18.17543454 -2.75073387 -8.27887076 -3.89501157 0 0 Z " fill="#FFFFFF" transform="translate(563.5,441.6875)"/>
<path d="M0 0 C0.74958984 0.00902344 1.49917969 0.01804687 2.27148438 0.02734375 C4.11862654 0.05087422 5.96560412 0.08674439 7.8125 0.125 C7.8125 2.435 7.8125 4.745 7.8125 7.125 C4.1825 7.455 0.5525 7.785 -3.1875 8.125 C-3.8475 10.765 -4.5075 13.405 -5.1875 16.125 C-0.8975 16.125 3.3925 16.125 7.8125 16.125 C7.8125 19.095 7.8125 22.065 7.8125 25.125 C3.8525 25.125 -0.1075 25.125 -4.1875 25.125 C-4.1875 36.675 -4.1875 48.225 -4.1875 60.125 C-7.8175 60.125 -11.4475 60.125 -15.1875 60.125 C-15.1875 48.575 -15.1875 37.025 -15.1875 25.125 C-17.4975 25.125 -19.8075 25.125 -22.1875 25.125 C-22.1875 22.155 -22.1875 19.185 -22.1875 16.125 C-19.8775 16.125 -17.5675 16.125 -15.1875 16.125 C-15.15011719 15.53332031 -15.11273438 14.94164062 -15.07421875 14.33203125 C-14.67697172 9.55727778 -14.24506639 6.00575734 -11.1875 2.125 C-7.39586973 -0.40275351 -4.37875969 -0.09943035 0 0 Z " fill="#FFFFFF" transform="translate(100.1875,424.875)"/>
<path d="M0 0 C0 3.3 0 6.6 0 10 C4.29 10 8.58 10 13 10 C13 12.97 13 15.94 13 19 C8.71 19 4.42 19 0 19 C0.14098286 22.08362514 0.28759148 25.16680684 0.4375 28.25 C0.47681641 29.12269531 0.51613281 29.99539063 0.55664062 30.89453125 C0.59853516 31.73886719 0.64042969 32.58320313 0.68359375 33.453125 C0.72025146 34.22817383 0.75690918 35.00322266 0.79467773 35.80175781 C0.97466143 38.32722445 0.97466143 38.32722445 2 42 C5.63 42.99 9.26 43.98 13 45 C13 47.97 13 50.94 13 54 C5.91785955 54.46867106 -0.30481662 54.68772936 -6 50 C-10.32987773 43.53609244 -10.50960625 36.98105857 -10.25 29.4375 C-10.23195312 28.42880859 -10.21390625 27.42011719 -10.1953125 26.38085938 C-10.14865249 23.91954395 -10.0832157 21.46030429 -10 19 C-12.31 19 -14.62 19 -17 19 C-16.58150577 14.11756726 -14.50793937 12.25737227 -11 9 C-10.443125 8.236875 -9.88625 7.47375 -9.3125 6.6875 C-8.6628125 5.8521875 -8.6628125 5.8521875 -8 5 C-7.34 5 -6.68 5 -6 5 C-6 4.34 -6 3.68 -6 3 C-3.89994105 0.39992701 -3.48266577 0 0 0 Z " fill="#FFFFFF" transform="translate(219,431)"/>
<path d="M0 0 C3.3 0 6.6 0 10 0 C10 19.8 10 39.6 10 60 C6.7 60 3.4 60 0 60 C0 40.2 0 20.4 0 0 Z " fill="#FFFFFF" transform="translate(384,425)"/>
<path d="M0 0 C3.3 0 6.6 0 10 0 C10 19.8 10 39.6 10 60 C6.7 60 3.4 60 0 60 C0 40.2 0 20.4 0 0 Z " fill="#FFFFFF" transform="translate(363,425)"/>
<path d="M0 0 C3.3 0 6.6 0 10 0 C10 18.81 10 37.62 10 57 C6.7 57 3.4 57 0 57 C0 38.19 0 19.38 0 0 Z " fill="#FFFFFF" transform="translate(10,428)"/>
<path d="M0 0 C3.63 0 7.26 0 11 0 C11 14.52 11 29.04 11 44 C7.37 44 3.74 44 0 44 C0 29.48 0 14.96 0 0 Z " fill="#FFFFFF" transform="translate(405,441)"/>
<path d="M0 0 C3.3 0 6.6 0 10 0 C10 14.52 10 29.04 10 44 C6.7 44 3.4 44 0 44 C0 29.48 0 14.96 0 0 Z " fill="#FFFFFF" transform="translate(186,441)"/>
<path d="M0 0 C3.3 0 6.6 0 10 0 C10 14.52 10 29.04 10 44 C6.7 44 3.4 44 0 44 C0 29.48 0 14.96 0 0 Z " fill="#FFFFFF" transform="translate(114,441)"/>
<path d="M0 0 C3.63 0 7.26 0 11 0 C11 3.63 11 7.26 11 11 C3.28515625 11.09765625 3.28515625 11.09765625 1 11 C0 10 0 10 -0.09765625 7.71484375 C-0.06510417 5.14322917 -0.03255208 2.57161458 0 0 Z " fill="#FFFFFF" transform="translate(185,425)"/>
<path d="M0 0 C3.63 0 7.26 0 11 0 C11 3.63 11 7.26 11 11 C3.28515625 11.09765625 3.28515625 11.09765625 1 11 C0 10 0 10 -0.09765625 7.71484375 C-0.06510417 5.14322917 -0.03255208 2.57161458 0 0 Z " fill="#FFFFFF" transform="translate(113,425)"/>
<path d="M0 0 C3.63 0 7.26 0 11 0 C11.09765625 7.71484375 11.09765625 7.71484375 11 10 C10 11 10 11 7.96875 11.1328125 C7.1540625 11.13023437 6.339375 11.12765625 5.5 11.125 C4.6853125 11.12757813 3.870625 11.13015625 3.03125 11.1328125 C1 11 1 11 0 10 C-0.14257189 6.66381769 -0.04228157 3.34024394 0 0 Z " fill="#FFFFFF" transform="translate(405,425)"/>
<path d="M0 0 C0.33 0.66 0.66 1.32 1 2 C-0.26171195 5.30248426 -2.03149525 8.37985864 -3.6875 11.5 C-4.13544922 12.38042969 -4.58339844 13.26085937 -5.04492188 14.16796875 C-5.48771484 15.00972656 -5.93050781 15.85148437 -6.38671875 16.71875 C-6.99326294 17.87793945 -6.99326294 17.87793945 -7.61206055 19.06054688 C-9.18842351 21.26329575 -10.51137555 22.0075936 -13 23 C-11.49450797 18.8189444 -9.42101826 15.25957473 -7.0625 11.5 C-6.37285156 10.3965625 -5.68320312 9.293125 -4.97265625 8.15625 C-4.32167969 7.1146875 -3.67070313 6.073125 -3 5 C-1.99572727 3.33590443 -0.99403636 1.67023037 0 0 Z " fill="#0C0C0C" transform="translate(598,252)"/>
</svg>
